# xmcd
#
# Track frame offsets: 
#        150
#        23920
#        50834
#        80039
#        108039
#        128273
#        150019
#        179286
#        201997
#        220449
#
# Disc length: 3267 seconds
#
# Revision: 0
# Processed by: cddbd v1.5.2PL0 Copyright (c) Steve Scherf et al.
# Submitted via: ExactAudioCopy v1.0b3
#
DISCID=7d0cc10a
DTITLE=Duy Vu - Go Cua Trai Tim
DYEAR=2002
DGENRE=
TTITLE0=Go cua trai tim
TTITLE1=Dep long nguoi yeu
TTITLE2=Nua dem bien gioi
TTITLE3=Vung ngoai o
TTITLE4=Duy Vu, Phuong Mai - Dem buon tinh le
TTITLE5=Doi mat nguoi xua
TTITLE6=Hoa muoi gio loi hen (Ti Ngo cua toi)
TTITLE7=Em sap ve chua
TTITLE8=Duoc tin em lay chong
TTITLE9=Thoi doi
EXTD=
EXTT0=
EXTT1=
EXTT2=
EXTT3=
EXTT4=
EXTT5=
EXTT6=
EXTT7=
EXTT8=
EXTT9=
PLAYORDER=
